<svg width="340" height="784" viewBox="0 0 340 784" fill="none" xmlns="http://www.w3.org/2000/svg">
<path d="M166.536 57L170 51L173.464 57H166.536Z" stroke="#FFCC43"/>
<path d="M157.536 216L161 210L164.464 216H157.536Z" stroke="#FFCC43"/>
<path d="M13.5359 99L17 93L20.4641 99H13.5359Z" stroke="#FFCC43"/>
<path d="M326.536 7L330 1L333.464 7H326.536Z" stroke="#FFCC43"/>
<path d="M192.536 327L196 321L199.464 327H192.536Z" stroke="#FFCC43"/>
<path d="M265.536 398L269 392L272.464 398H265.536Z" stroke="#FFCC43"/>
<path d="M291.536 561L295 555L298.464 561H291.536Z" stroke="#FFCC43"/>
<path d="M156.536 669L160 663L163.464 669H156.536Z" stroke="#FFCC43"/>
<path d="M1.5359 781L5 775L8.4641 781H1.5359Z" stroke="#FFCC43"/>
<path d="M241.536 761L245 755L248.464 761H241.536Z" stroke="#FFCC43"/>
<rect x="0.5" y="-0.5" width="9" height="9" transform="matrix(1 0 0 -1 12 269)" stroke="#01AF8B"/>
<rect x="0.5" y="-0.5" width="9" height="9" transform="matrix(1 0 0 -1 235 204)" stroke="#01AF8B"/>
<rect x="0.5" y="-0.5" width="9" height="9" transform="matrix(1 0 0 -1 250 339)" stroke="#01AF8B"/>
<rect x="0.5" y="-0.5" width="9" height="9" transform="matrix(1 0 0 -1 330 117)" stroke="#01AF8B"/>
<rect x="0.5" y="-0.5" width="9" height="9" transform="matrix(1 0 0 -1 45 553)" stroke="#01AF8B"/>
<rect x="0.5" y="-0.5" width="9" height="9" transform="matrix(1 0 0 -1 305 738)" stroke="#01AF8B"/>
<rect x="0.5" y="-0.5" width="9" height="9" transform="matrix(1 0 0 -1 175 614)" stroke="#01AF8B"/>
<rect x="0.5" y="-0.5" width="9" height="9" transform="matrix(1 0 0 -1 84 695)" stroke="#01AF8B"/>
<circle cx="89" cy="361" r="4.5" stroke="#FF8034"/>
<circle cx="166" cy="305" r="4.5" stroke="#FF8034"/>
<circle cx="303" cy="255" r="4.5" stroke="#FF8034"/>
<circle cx="237" cy="645" r="4.5" stroke="#FF8034"/>
<circle cx="60" cy="594" r="4.5" stroke="#FF8034"/>
<circle cx="146" cy="764" r="4.5" stroke="#FF8034"/>
<circle cx="335" cy="541" r="4.5" stroke="#FF8034"/>
</svg>
