<svg width="151" height="191" viewBox="0 0 151 191" fill="none" xmlns="http://www.w3.org/2000/svg">
<path d="M111.34 103.64H100.82C100.82 103.64 93.6799 114.46 95.5699 116.5C97.4599 118.54 101.69 113.99 101.69 113.99C101.69 115.41 102.63 118.99 106.08 118.99C109.53 118.99 110.47 115.38 110.47 113.99C110.47 113.99 114.71 118.54 116.59 116.5C118.47 114.46 111.34 103.64 111.34 103.64Z" fill="#FF8034"/>
<path d="M106.08 103.64V138.94C106.08 147.26 96.51 146.16 96.51 140.67C96.51 135.18 108.75 132.82 108.75 143.67V190.88" stroke="#01AF8D" stroke-width="0.75" stroke-miterlimit="10"/>
<path d="M150.89 55.78C150.828 55.5923 150.726 55.4201 150.591 55.2752C150.457 55.1302 150.293 55.0159 150.11 54.94C149.92 54.87 131.04 47.21 125.7 43.33C120.36 39.45 107.25 23.87 107.11 23.71C106.98 23.5662 106.821 23.4513 106.643 23.3727C106.466 23.294 106.274 23.2534 106.08 23.2534C105.886 23.2534 105.694 23.294 105.517 23.3727C105.339 23.4513 105.18 23.5662 105.05 23.71C104.91 23.87 91.7901 39.45 86.4601 43.33C81.1301 47.21 62.2401 54.87 62.0501 54.94C61.8675 55.0159 61.7033 55.1302 61.5687 55.2752C61.4342 55.4201 61.3323 55.5923 61.2701 55.78C61.2104 55.9673 61.192 56.1653 61.2161 56.3604C61.2403 56.5554 61.3065 56.743 61.4101 56.91C61.5201 57.09 72.2901 74.38 74.3301 80.65C76.3701 86.92 77.8201 107.25 77.8401 107.45C77.8628 107.791 78.0137 108.11 78.2623 108.344C78.5109 108.577 78.8388 108.708 79.1801 108.71C79.2896 108.725 79.4006 108.725 79.5101 108.71C79.7101 108.66 99.5101 103.76 106.08 103.76C112.65 103.76 132.45 108.66 132.65 108.71C132.842 108.755 133.041 108.758 133.234 108.72C133.427 108.682 133.61 108.604 133.77 108.49C133.931 108.375 134.064 108.226 134.159 108.053C134.254 107.879 134.309 107.687 134.32 107.49C134.32 107.29 135.79 86.97 137.83 80.69C139.87 74.41 150.64 57.13 150.75 56.95C150.86 56.778 150.929 56.5835 150.953 56.381C150.978 56.1784 150.956 55.973 150.89 55.78Z" fill="#FFCC43"/>
<path d="M77.8401 107.45C77.8628 107.791 78.0137 108.11 78.2623 108.344C78.5109 108.577 78.8388 108.708 79.1801 108.71C79.2896 108.725 79.4006 108.725 79.5101 108.71C79.7101 108.66 99.5101 103.76 106.08 103.76C112.65 103.76 132.45 108.66 132.65 108.71C132.842 108.755 133.041 108.758 133.234 108.72C133.427 108.682 133.61 108.604 133.77 108.49C133.931 108.375 134.064 108.226 134.159 108.053C134.254 107.879 134.309 107.687 134.32 107.49C134.32 107.29 135.79 86.97 137.83 80.69C138.412 79.0551 139.103 77.4615 139.9 75.92C131.54 86.22 134.46 96.38 128.9 99.33C123.34 102.28 115.39 95.93 106.07 95.48C96.7501 95.03 90.7901 100.13 85.8401 99.23C80.8901 98.33 83.8901 87.08 81.8401 77.76C79.7901 68.44 72.9401 65.32 71.7401 59.47C70.5401 53.62 77.1401 50.62 83.6801 45.09C76.4301 49.15 62.2101 54.92 62.0401 54.98C61.8575 55.056 61.6933 55.1703 61.5587 55.3152C61.4241 55.4601 61.3223 55.6323 61.2601 55.82C61.2004 56.0073 61.182 56.2053 61.2061 56.4004C61.2303 56.5954 61.2965 56.783 61.4001 56.95C61.5101 57.13 72.2801 74.42 74.3201 80.69C76.3601 86.96 77.8201 107.25 77.8401 107.45Z" fill="#FFAF45"/>
<g style="mix-blend-mode:soft-light">
<path d="M120.8 45.05C128.29 51.32 140.01 54.64 140.46 56.81C140.91 58.98 139.26 67.98 126.06 69.93C112.86 71.88 101.76 58.68 100.6 46.98C99.4401 35.28 106.3 31.81 107.95 32.11C109.6 32.41 113.3 38.78 120.8 45.05Z" fill="white"/>
</g>
<path d="M49.6 83.64H39.08C39.08 83.64 31.94 94.47 33.82 96.51C35.7 98.55 39.94 94 39.94 94C39.94 95.41 40.88 99 44.33 99C47.78 99 48.73 95.39 48.73 94C48.73 94 52.96 98.55 54.85 96.51C56.74 94.47 49.6 83.64 49.6 83.64Z" fill="#008777"/>
<path d="M44.33 83.64V118.95C44.33 127.26 34.76 126.16 34.76 120.67C34.76 115.18 47 112.83 47 123.67V170.91" stroke="#01AF8D" stroke-width="0.75" stroke-miterlimit="10"/>
<path d="M44.33 86.35C64.9578 86.35 81.68 68.1011 81.68 45.59C81.68 23.0789 64.9578 4.83 44.33 4.83C23.7021 4.83 6.97998 23.0789 6.97998 45.59C6.97998 68.1011 23.7021 86.35 44.33 86.35Z" fill="#01AF8B"/>
<g style="mix-blend-mode:multiply" opacity="0.5">
<path d="M77.5999 64.05C69.7799 70.82 53.0899 81.13 32.6899 72.05C12.2899 62.97 9.55989 39.41 15.1899 20.05C9.79277 27.4601 6.90878 36.4029 6.9599 45.57C6.9599 68.09 23.6799 86.33 44.2999 86.33C58.8699 86.35 71.4599 77.28 77.5999 64.05Z" fill="#009B8C"/>
</g>
<g style="mix-blend-mode:soft-light">
<path d="M56.9699 10.58C62.9699 12.58 72.4999 20.4 75.5599 32.64C78.6199 44.88 72.4999 46.53 69.2099 43.94C65.9199 41.35 59.7899 32.34 49.6699 27.78C39.5499 23.22 33.4299 18.48 34.6099 14.38C35.7899 10.28 45.6699 6.77998 56.9699 10.58Z" fill="white"/>
</g>
</svg>
