<svg width="62" height="59" viewBox="0 0 62 59" fill="none" xmlns="http://www.w3.org/2000/svg">
<g clip-path="url(#clip0_29_81)">
<path d="M57.654 56.9538C58.9697 53.2296 47.1521 45.6678 31.2588 40.0639C15.3654 34.46 1.41477 32.9361 0.0990715 36.6603C-1.21662 40.3844 10.6009 47.9463 26.4942 53.5502C42.3876 59.1541 56.3383 60.6779 57.654 56.9538Z" fill="#246B6B"/>
<path d="M23.7042 0.561554L13.6179 39.3318C13.0694 40.8806 19.7558 44.644 28.5501 47.7462C37.3445 50.8483 44.9148 52.1073 45.4588 50.563L61.9731 14.0707L23.7042 0.561554Z" fill="#246B6B"/>
<path d="M61.9727 14.0707C61.4288 15.615 52.4168 13.8488 41.8501 10.1217C31.2833 6.39453 23.1553 2.11943 23.7174 0.575139C24.2795 -0.96915 33.2733 0.797045 43.8401 4.52417C54.4069 8.2513 62.5258 12.5128 61.9727 14.0707Z" fill="#22615F"/>
<path d="M33.2601 34.4227C27.6021 32.4549 22.069 30.1456 16.6914 27.5074L13.6179 39.3318C13.0694 40.8806 19.7558 44.644 28.5501 47.7461C37.3444 50.8483 44.9148 52.1073 45.4588 50.563L50.4997 39.4314C44.6562 38.1149 38.8989 36.4422 33.2601 34.4227Z" fill="#FE4F3F"/>
<path d="M26.0498 33.9892C26.8905 31.6094 25.7597 29.0412 23.5239 28.2529C21.2882 27.4646 18.7942 28.7547 17.9535 31.1345C17.1127 33.5142 18.2436 36.0825 20.4793 36.8708C22.7151 37.6591 25.209 36.369 26.0498 33.9892Z" fill="#FFCC43"/>
<path d="M31.3379 38.1272C31.2064 38.4428 30.9852 38.7129 30.7017 38.9042C30.4181 39.0955 30.0846 39.1995 29.7425 39.2034C29.4004 39.2073 29.0646 39.111 28.7767 38.9262C28.4888 38.7415 28.2615 38.4765 28.1228 38.164C27.9841 37.8515 27.9402 37.5052 27.9965 37.1681C28.0527 36.8309 28.2067 36.5176 28.4393 36.267C28.6719 36.0163 28.973 35.8393 29.3053 35.7578C29.6376 35.6763 29.9865 35.6939 30.3089 35.8085C30.7501 35.9835 31.105 36.3244 31.2974 36.7579C31.4898 37.1914 31.5043 37.683 31.3379 38.1272Z" fill="#FFCC43"/>
<path d="M26.7154 43.9279C27.2653 42.3712 26.5245 40.6909 25.0608 40.1748C23.5971 39.6587 21.9646 40.5022 21.4147 42.0589C20.8648 43.6155 21.6055 45.2958 23.0693 45.8119C24.533 46.328 26.1654 45.4845 26.7154 43.9279Z" fill="#FFCC43"/>
<path d="M37.2841 47.6529C38.2548 44.9052 36.948 41.9395 34.3652 41.0288C31.7824 40.1181 28.9017 41.6074 27.931 44.3551C26.9603 47.1028 28.2671 50.0685 30.8499 50.9792C33.4327 51.8898 36.3134 50.4006 37.2841 47.6529Z" fill="#FFCC43"/>
<path d="M43.0879 37.7558C42.7969 38.4388 42.3123 39.0217 41.6937 39.4329C41.0752 39.8441 40.3498 40.0655 39.6068 40.0699C38.8639 40.0743 38.1359 39.8615 37.5125 39.4577C36.8892 39.0539 36.3977 38.4767 36.0986 37.7973C35.7995 37.1179 35.7059 36.3659 35.8293 35.634C35.9527 34.9021 36.2877 34.2222 36.7931 33.6782C37.2985 33.1341 37.9521 32.7497 38.6735 32.5722C39.3949 32.3946 40.1525 32.4318 40.853 32.6791C41.8224 33.0573 42.6021 33.8042 43.021 34.7559C43.44 35.7076 43.464 36.7865 43.0879 37.7558Z" fill="#FFCC43"/>
<path d="M44.0942 46.297C43.9704 46.5904 43.7632 46.8413 43.4983 47.0184C43.2333 47.1956 42.9223 47.2914 42.6035 47.2939C42.2847 47.2965 41.9721 47.2057 41.7044 47.0327C41.4367 46.8598 41.2255 46.6123 41.097 46.3209C40.9685 46.0294 40.9282 45.7067 40.9812 45.3926C41.0342 45.0786 41.1781 44.7869 41.3952 44.5536C41.6122 44.3203 41.8929 44.1557 42.2026 44.08C42.5123 44.0043 42.8374 44.0209 43.1377 44.1277C43.5518 44.2895 43.8849 44.6086 44.0641 45.0151C44.2434 45.4216 44.2542 45.8825 44.0942 46.297Z" fill="#FFCC43"/>
<path d="M53.6735 44.0315C54.4617 41.8004 53.4012 39.3924 51.3048 38.6532C49.2083 37.914 46.8698 39.1235 46.0816 41.3547C45.2933 43.5859 46.3538 45.9938 48.4503 46.733C50.5467 47.4722 52.8852 46.2627 53.6735 44.0315Z" fill="#FFCC43"/>
<path d="M18.3638 40.3734C18.1782 40.8093 17.8689 41.1815 17.4741 41.4439C17.0793 41.7064 16.6162 41.8477 16.142 41.8504C15.6678 41.8532 15.2032 41.7172 14.8054 41.4593C14.4076 41.2014 14.094 40.8329 13.9033 40.3991C13.7126 39.9653 13.6532 39.4853 13.7323 39.0182C13.8114 38.5511 14.0256 38.1173 14.3485 37.7703C14.6713 37.4233 15.0888 37.1783 15.5494 37.0655C16.0099 36.9527 16.4935 36.977 16.9404 37.1354C17.5584 37.377 18.0552 37.8535 18.322 38.4605C18.5888 39.0675 18.6039 39.7554 18.3638 40.3734Z" fill="#FFCC43"/>
<g style="mix-blend-mode:soft-light" opacity="0.5">
<path d="M44.6381 49.6391C45.2954 49.2497 60.0509 16.5207 59.5976 16.3667C59.1442 16.2128 52.3445 15.1123 51.6555 15.1395C50.9664 15.1666 38.056 48.6519 38.3053 49.1546C38.5546 49.6573 43.8086 50.1328 44.6381 49.6391Z" fill="white"/>
</g>
<g style="mix-blend-mode:multiply" opacity="0.5">
<path d="M19.5609 39.4813C18.8492 35.9126 21.9544 7.27763 21.9544 7.27763L13.6179 39.3318C13.1646 40.6678 18.0604 43.6522 25.0642 46.4374C25.037 46.4193 20.2681 43.0544 19.5609 39.4813Z" fill="#AA2942"/>
</g>
</g>
<defs>
<clipPath id="clip0_29_81">
<rect width="62" height="59" fill="white"/>
</clipPath>
</defs>
</svg>
