<svg width="360" height="317" viewBox="0 0 360 317" fill="none" xmlns="http://www.w3.org/2000/svg">
<path d="M-5.14636 233.822C-27.6088 237.269 -47.2343 245.6 -60.3353 257.249C-73.4364 268.898 -79.1114 283.064 -76.2941 297.085C-73.4767 311.106 -62.361 324.017 -45.0353 333.393C-27.7096 342.768 -5.36651 347.963 17.7961 348H279.046C295.815 347.993 312.39 345.82 327.683 341.625C342.975 337.43 356.637 331.307 367.77 323.659C378.902 316.012 387.253 307.013 392.271 297.255C397.29 287.498 398.864 277.203 396.888 267.047C394.913 256.892 389.433 247.107 380.81 238.337C372.187 229.566 360.616 222.009 346.858 216.162C333.1 210.316 317.469 206.312 300.991 204.415C284.514 202.519 267.564 202.772 251.259 205.158L219.671 210.401" fill="#C6FFFF"/>
<path d="M251.259 205.158C243.141 185.554 223.105 168.567 195.212 157.639C167.318 146.711 133.655 142.66 101.046 146.307C68.4368 149.954 39.3217 161.027 19.6026 177.281C-0.116434 193.534 -8.96392 213.752 -5.14635 233.836C-5.14635 233.836 -1.5126 246.611 5.92115 253.853" fill="#C6FFFF"/>
<path d="M205.101 162.772C194.185 165.529 184.647 172.191 178.281 181.507C171.914 190.824 169.156 202.152 170.525 213.365C171.895 224.578 177.296 234.904 185.716 242.402C194.136 249.899 204.994 254.053 216.25 254.083H343.208C351.357 254.078 359.412 252.34 366.844 248.985C374.276 245.63 380.915 240.733 386.325 234.617C391.735 228.501 395.793 221.305 398.232 213.501C400.671 205.698 401.436 197.465 400.475 189.343C399.515 181.222 396.853 173.397 392.662 166.383C388.471 159.369 382.848 153.325 376.163 148.649C369.477 143.974 361.88 140.772 353.873 139.255C345.865 137.738 337.629 137.94 329.705 139.848L314.354 144.042" fill="#C6FFFF"/>
<path d="M329.705 139.848C325.76 124.171 316.023 110.586 302.468 101.847C288.912 93.1071 272.553 89.8675 256.706 92.7843C240.859 95.7011 226.711 104.556 217.128 117.555C207.545 130.553 203.245 146.722 205.101 162.784C205.101 162.784 206.867 173 210.479 178.792" fill="#C6FFFF"/>
<path d="M9.10072 128.772C-1.81526 131.529 -11.3525 138.191 -17.7192 147.507C-24.0859 156.824 -26.8437 168.152 -25.4746 179.365C-24.1054 190.578 -18.7036 200.904 -10.2839 208.402C-1.86423 215.899 8.99374 220.053 20.25 220.083H147.208C155.357 220.078 163.412 218.34 170.844 214.985C178.276 211.63 184.915 206.733 190.325 200.617C195.735 194.501 199.793 187.305 202.232 179.501C204.671 171.698 205.436 163.465 204.475 155.343C203.515 147.222 200.853 139.397 196.662 132.383C192.471 125.369 186.848 119.325 180.163 114.649C173.477 109.974 165.88 106.772 157.873 105.255C149.865 103.738 141.629 103.94 133.705 105.848L118.354 110.042" fill="#C6FFFF"/>
<path d="M133.705 105.848C129.76 90.1713 120.023 76.586 106.468 67.8466C92.9125 59.1071 76.5533 55.8675 60.7064 58.7843C44.8595 61.7011 30.7106 70.5562 21.1278 83.5545C11.545 96.5528 7.24545 112.722 9.10066 128.784C9.10066 128.784 10.8665 139 14.4791 144.792" fill="#C6FFFF"/>
</svg>
