<svg width="181" height="55" viewBox="0 0 181 55" fill="none" xmlns="http://www.w3.org/2000/svg">
<g clip-path="url(#clip0_29_138)">
<path d="M101.18 46.78L90.2601 54.28L79.3501 46.78V20.78H101.18V46.78Z" fill="#01AF8B"/>
<path d="M25.65 38.67L12.91 42.29L4.96997 31.69L13.28 7.06L33.97 14.04L25.65 38.67Z" fill="#01AF8B"/>
<path d="M154.71 38.67L167.45 42.29L175.4 31.69L167.09 7.06L146.4 14.04L154.71 38.67Z" fill="#01AF8B"/>
<path d="M62.6 45.31L50.73 51.19L40.99 42.23L44.66 16.48L66.27 19.57L62.6 45.31Z" fill="#FFCC43"/>
<path d="M40.6499 19.77L68.9599 23.81" stroke="#01AF8B" stroke-miterlimit="10"/>
<path d="M39.78 25.88L68.09 29.91" stroke="#01AF8B" stroke-miterlimit="10"/>
<path d="M38.9099 31.98L67.2199 36.02" stroke="#01AF8B" stroke-miterlimit="10"/>
<path d="M38.04 38.09L66.35 42.12" stroke="#01AF8B" stroke-miterlimit="10"/>
<path d="M37.1699 44.19L65.4699 48.23" stroke="#01AF8B" stroke-miterlimit="10"/>
<path d="M117.76 45.31L129.63 51.19L139.38 42.23L135.71 16.48L114.09 19.57L117.76 45.31Z" fill="#FFCC43"/>
<path d="M139.71 19.77L111.4 23.81" stroke="#01AF8B" stroke-miterlimit="10"/>
<path d="M140.58 25.88L112.28 29.91" stroke="#01AF8B" stroke-miterlimit="10"/>
<path d="M141.45 31.98L113.15 36.02" stroke="#01AF8B" stroke-miterlimit="10"/>
<path d="M142.32 38.09L114.02 42.12" stroke="#01AF8B" stroke-miterlimit="10"/>
<path d="M143.19 44.19L114.89 48.23" stroke="#01AF8B" stroke-miterlimit="10"/>
<path d="M180.27 0.429993C160.06 12.76 127.27 20.78 90.27 20.78C53.27 20.78 20.48 12.78 0.27002 0.429993" stroke="white" stroke-miterlimit="10"/>
</g>
<defs>
<clipPath id="clip0_29_138">
<rect width="180.53" height="54.28" fill="white"/>
</clipPath>
</defs>
</svg>
