<svg width="259" height="259" viewBox="0 0 259 259" fill="none" xmlns="http://www.w3.org/2000/svg">
<g clip-path="url(#clip0_16_42)">
<path d="M132.522 11.8721L128.726 8.3694L124.943 11.9159C124.943 11.9159 124.74 12.1091 124.364 12.4894C119.063 17.8525 92.6301 47.1868 92.9156 98.0952C92.9882 111.722 94.2325 124.827 96.4563 136.64C70.5055 147.808 70.7445 192.052 70.7445 192.052C70.7445 192.052 80.534 167.891 107.537 170.16C109.77 174.169 112.079 177.26 114.388 179.631L114.429 186.33C114.44 188.291 116.202 189.877 118.166 189.867L119.777 189.856L119.806 194.476C119.813 195.605 120.51 196.632 121.555 196.861C119.617 198.19 118.357 201.641 115.352 208.297C111.55 216.711 115.623 222.981 115.623 222.981C115.623 222.981 118.559 221.959 121.729 219.342C123.431 228.375 129.976 233.16 129.976 233.16C129.976 233.16 136.468 228.294 138.068 219.248C141.267 221.828 144.213 222.814 144.213 222.814C144.213 222.814 148.217 216.49 144.315 208.12C141.186 201.4 139.894 197.96 137.895 196.704C138.89 196.364 139.72 195.399 139.714 194.364L139.685 189.739L141.622 189.728C143.588 189.713 145.012 188.113 144.995 186.149L144.962 179.361C147.358 176.836 149.584 173.656 151.621 169.908C178.728 167.197 188.823 191.35 188.823 191.35C188.823 191.35 188.575 146.998 162.403 136.201C164.485 124.494 165.582 111.397 165.509 97.6645C165.206 42.6572 133.858 13.1 132.522 11.8721ZM138.874 203.084C141.038 207.729 138.822 211.232 138.822 211.232C138.822 211.232 136.541 210.452 134.444 208.367C133.839 213.913 129.883 216.939 129.883 216.939C129.883 216.939 125.894 213.957 125.225 208.418C123.146 210.529 120.878 211.335 120.878 211.335C120.878 211.335 118.621 207.858 120.732 203.189C122.355 199.598 123.066 197.719 124.093 196.941L135.451 196.873C136.483 197.64 137.214 199.512 138.874 203.084ZM140.554 175.977C139.361 177.178 138.024 178.225 136.572 179.094L122.66 179.174C108.655 170.766 98.6871 137.401 98.4663 98.0612C98.3473 76.7321 103.191 59.3196 109.036 46.0973L148.815 45.8679C154.805 59.0158 159.843 76.3653 159.96 97.6965C160.157 133.261 152.335 164.059 140.554 175.977" fill="#66FCF1"/>
<path d="M119.293 78.1481C116.705 80.766 115.263 84.3048 115.284 87.9858C115.306 91.6669 116.788 95.1887 119.406 97.7766C122.024 100.365 125.563 101.806 129.244 101.785C132.925 101.764 136.447 100.281 139.035 97.6634C141.622 95.0451 143.064 91.5065 143.043 87.8256C143.023 84.1446 141.542 80.6223 138.926 78.0329C136.306 75.4458 132.767 74.0046 129.085 74.0262C125.404 74.0479 121.882 75.5304 119.293 78.1481V78.1481ZM135.742 94.4085C134.888 95.2728 133.873 95.9604 132.753 96.4322C131.633 96.9039 130.432 97.1505 129.217 97.1579C128.002 97.1652 126.798 96.9333 125.673 96.4752C124.547 96.0171 123.523 95.3419 122.659 94.488C121.795 93.6342 121.107 92.6185 120.636 91.499C120.164 90.3794 119.917 89.1779 119.91 87.963C119.902 86.7482 120.134 85.5437 120.593 84.4185C121.051 83.2933 121.726 82.2693 122.58 81.4051C124.304 79.6596 126.651 78.6707 129.105 78.6558C131.558 78.6409 133.917 79.6012 135.663 81.3256C137.408 83.05 138.397 85.3971 138.412 87.8506C138.427 90.3041 137.466 92.6631 135.742 94.4085" fill="#66FCF1"/>
<path d="M119.509 117.407C116.922 120.026 115.481 123.565 115.502 127.247C115.523 130.928 117.004 134.45 119.62 137.04C122.256 139.541 125.767 140.91 129.4 140.852C133.033 140.794 136.498 139.315 139.053 136.731C141.607 134.147 143.047 130.664 143.063 127.031C143.078 123.397 141.669 119.902 139.138 117.296C136.52 114.709 132.981 113.267 129.3 113.288C125.62 113.309 122.098 114.791 119.509 117.407V117.407ZM135.956 133.67C135.108 134.558 134.091 135.269 132.965 135.761C131.839 136.253 130.627 136.515 129.398 136.533C128.17 136.551 126.95 136.324 125.81 135.865C124.671 135.407 123.634 134.726 122.76 133.862C121.886 132.998 121.193 131.969 120.722 130.835C120.25 129.7 120.009 128.483 120.013 127.255C120.016 126.026 120.265 124.811 120.743 123.679C121.222 122.547 121.921 121.523 122.8 120.664C123.654 119.799 124.67 119.111 125.79 118.639C126.91 118.167 128.112 117.921 129.328 117.914C130.543 117.907 131.748 118.139 132.874 118.598C133.999 119.057 135.023 119.734 135.887 120.589C136.751 121.443 137.439 122.458 137.91 123.578C138.381 124.698 138.627 125.9 138.634 127.115C138.64 128.33 138.407 129.534 137.948 130.659C137.488 131.784 136.811 132.807 135.956 133.67" fill="#66FCF1"/>
<path d="M112.089 52.3524C112.987 51.4438 112.979 49.9789 112.07 49.0807C111.161 48.1824 109.697 48.1909 108.798 49.0995C107.9 50.0082 107.909 51.473 108.817 52.3713C109.726 53.2696 111.191 53.2611 112.089 52.3524Z" fill="#66FCF1"/>
<path d="M121.342 52.291C122.239 51.3834 122.231 49.9204 121.323 49.0233C120.415 48.1261 118.952 48.1346 118.055 49.0421C117.158 49.9497 117.167 51.4127 118.074 52.3098C118.982 53.207 120.445 53.1985 121.342 52.291Z" fill="#66FCF1"/>
<path d="M130.601 52.2396C131.501 51.3298 131.492 49.8632 130.582 48.9638C129.672 48.0644 128.206 48.0729 127.306 48.9827C126.407 49.8925 126.416 51.3591 127.325 52.2585C128.235 53.1579 129.702 53.1494 130.601 52.2396Z" fill="#66FCF1"/>
<path d="M139.85 52.1863C140.75 51.2765 140.741 49.8098 139.832 48.9105C138.922 48.0111 137.455 48.0196 136.556 48.9294C135.656 49.8392 135.665 51.3058 136.575 52.2052C137.484 53.1045 138.951 53.0961 139.85 52.1863Z" fill="#66FCF1"/>
<path d="M147.449 48.1851C146.834 48.1899 146.247 48.4378 145.815 48.8746C145.384 49.3114 145.142 49.9015 145.145 50.5158C145.146 50.82 145.207 51.121 145.325 51.4015C145.443 51.682 145.615 51.9365 145.831 52.1504C146.047 52.3643 146.304 52.5333 146.586 52.6478C146.867 52.7624 147.169 52.8201 147.473 52.8177C148.087 52.8114 148.674 52.563 149.105 52.1265C149.536 51.69 149.778 51.1008 149.777 50.487C149.772 49.8735 149.524 49.2871 149.088 48.8557C148.651 48.4244 148.062 48.1833 147.449 48.1851" fill="#66FCF1"/>
</g>
<defs>
<clipPath id="clip0_16_42">
<rect width="183.023" height="183.023" fill="white" transform="translate(0 130.161) rotate(-45.3304)"/>
</clipPath>
</defs>
</svg>
