<svg width="360" height="783" viewBox="0 0 360 783" fill="none" xmlns="http://www.w3.org/2000/svg">
<path d="M321 -17L194 253L321 16.2783V-17Z" fill="url(#paint0_linear_29_403)" stroke="black"/>
<path d="M385 9L236 326L385 48.0712V9Z" fill="url(#paint1_linear_29_403)" stroke="black"/>
<path d="M220.451 730.615L174.447 365L198.456 695.893L220.451 730.615Z" fill="url(#paint2_linear_29_403)" stroke="black"/>
<path d="M0.000108551 782L158 326L-3.30772 727.171L0.000108551 782Z" fill="url(#paint3_linear_29_403)" stroke="black"/>
<path d="M-27.9998 625.757L95.2017 371.392L-27.635 594.234L-27.9998 625.757Z" fill="url(#paint4_linear_29_403)" stroke="black"/>
<path d="M-40.5508 -30L174.551 252.385L-5.60239 -9.76959L-40.5508 -30Z" fill="url(#paint5_linear_29_403)" stroke="black"/>
<path d="M-54.1061 37L122.859 270.125L-25.5289 47.7539L-54.1061 37Z" fill="url(#paint6_linear_29_403)" stroke="black"/>
<path d="M58.5253 -17L180.114 183.753L80.4784 -4.29214L58.5253 -17Z" fill="url(#paint7_linear_29_403)" stroke="black"/>
<path d="M389.434 727.642L232.84 322L354.376 694.127L389.434 727.642Z" fill="url(#paint8_linear_29_403)" stroke="black"/>
<defs>
<linearGradient id="paint0_linear_29_403" x1="257.5" y1="-17" x2="257.5" y2="253" gradientUnits="userSpaceOnUse">
<stop stop-color="#66FCF1"/>
<stop offset="0.872917" stop-color="#0B0C10"/>
<stop offset="0.977083" stop-color="#0B0C10"/>
</linearGradient>
<linearGradient id="paint1_linear_29_403" x1="310.5" y1="9" x2="310.5" y2="326" gradientUnits="userSpaceOnUse">
<stop stop-color="#66FCF1"/>
<stop offset="0.872917" stop-color="#0B0C10"/>
<stop offset="0.977083" stop-color="#0B0C10"/>
</linearGradient>
<linearGradient id="paint2_linear_29_403" x1="286.674" y1="688.667" x2="108.224" y2="406.948" gradientUnits="userSpaceOnUse">
<stop stop-color="#66FCF1"/>
<stop offset="0.872917" stop-color="#0B0C10"/>
<stop offset="0.977083" stop-color="#0B0C10"/>
</linearGradient>
<linearGradient id="paint3_linear_29_403" x1="92.419" y1="776.424" x2="65.5812" y2="331.576" gradientUnits="userSpaceOnUse">
<stop stop-color="#66FCF1"/>
<stop offset="0.872917" stop-color="#0B0C10"/>
<stop offset="0.977083" stop-color="#0B0C10"/>
</linearGradient>
<linearGradient id="paint4_linear_29_403" x1="19" y1="554" x2="102" y2="355" gradientUnits="userSpaceOnUse">
<stop stop-color="#66FCF1"/>
<stop offset="0.949874" stop-color="#0B0C10"/>
</linearGradient>
<linearGradient id="paint5_linear_29_403" x1="-74.7754" y1="29.1236" x2="208.775" y2="193.261" gradientUnits="userSpaceOnUse">
<stop stop-color="#66FCF1"/>
<stop offset="0.872917" stop-color="#0B0C10"/>
<stop offset="0.977083" stop-color="#0B0C10"/>
</linearGradient>
<linearGradient id="paint6_linear_29_403" x1="-81.5531" y1="109.937" x2="150.306" y2="197.188" gradientUnits="userSpaceOnUse">
<stop stop-color="#66FCF1"/>
<stop offset="0.872917" stop-color="#0B0C10"/>
<stop offset="0.977083" stop-color="#0B0C10"/>
</linearGradient>
<linearGradient id="paint7_linear_29_403" x1="30.2627" y1="31.8243" x2="208.377" y2="134.928" gradientUnits="userSpaceOnUse">
<stop stop-color="#66FCF1"/>
<stop offset="0.872917" stop-color="#0B0C10"/>
<stop offset="0.977083" stop-color="#0B0C10"/>
</linearGradient>
<linearGradient id="paint8_linear_29_403" x1="453.354" y1="660.78" x2="168.92" y2="388.862" gradientUnits="userSpaceOnUse">
<stop stop-color="#66FCF1"/>
<stop offset="0.872917" stop-color="#0B0C10"/>
<stop offset="0.977083" stop-color="#0B0C10"/>
</linearGradient>
</defs>
</svg>
