<svg width="24" height="24" viewBox="0 0 24 24" fill="none" xmlns="http://www.w3.org/2000/svg">
<g clip-path="url(#clip0_54_5)">
<path d="M15.271 13.2099C15.8118 13.3801 16.3299 13.6151 16.814 13.9099L16.783 13.8919C17.312 14.1269 17.769 14.4019 18.186 14.7249L18.171 14.7139C18.191 14.7749 18.203 14.8439 18.203 14.9169L18.202 14.9489V14.9479C18.187 15.3769 18.092 15.7799 17.931 16.1469L17.939 16.1259C17.708 16.5889 17.323 16.9459 16.852 17.1359L16.838 17.1409C16.3507 17.3958 15.8117 17.5363 15.262 17.5519H15.256C14.2068 17.417 13.1927 17.0838 12.268 16.5699L12.311 16.5919C11.3288 16.147 10.4356 15.5273 9.67502 14.7629L9.67402 14.7619C8.84441 13.8982 8.09219 12.9632 7.42602 11.9679L7.37902 11.8939C6.71795 11.0298 6.33441 9.98554 6.27902 8.89895L6.27802 8.88595V8.76195C6.29269 8.29779 6.40169 7.84148 6.59836 7.42079C6.79504 7.00011 7.07528 6.62385 7.42202 6.31495L7.42502 6.31195C7.63921 6.09853 7.92771 5.97632 8.23002 5.97095H8.23102C8.33202 5.97395 8.42902 5.98195 8.52302 5.99595L8.51002 5.99395C8.59702 6.00695 8.69802 6.01495 8.80202 6.01695H8.80502C8.95061 6.00279 9.09667 6.03877 9.21902 6.11895L9.21702 6.11795C9.32402 6.23595 9.40602 6.37895 9.45502 6.53595L9.45702 6.54395C9.53969 6.75061 9.71036 7.20528 9.96902 7.90795C10.104 8.22195 10.236 8.60895 10.342 9.00695L10.356 9.06995C10.2839 9.41799 10.096 9.73134 9.82302 9.95895L9.82002 9.96095C9.46336 10.3383 9.28502 10.5783 9.28502 10.6809C9.28884 10.7651 9.31698 10.8464 9.36602 10.9149L9.36502 10.9139C9.75178 11.7135 10.2865 12.4325 10.941 13.0329L10.946 13.0379C11.6312 13.6552 12.3993 14.1735 13.228 14.5779L13.287 14.6039C13.3884 14.6697 13.5054 14.7073 13.626 14.7129H13.628C13.7834 14.7129 14.0627 14.4623 14.466 13.9609C14.8694 13.4596 15.1374 13.2089 15.27 13.2089L15.271 13.2099ZM12.124 21.4259H12.146C13.4591 21.4278 14.7581 21.1557 15.96 20.6269L15.899 20.6509C18.255 19.6569 20.092 17.8199 21.062 15.5269L21.086 15.4639C21.576 14.3509 21.861 13.0529 21.861 11.6889C21.861 10.3249 21.576 9.02695 21.062 7.85195L21.086 7.91395C20.092 5.55795 18.255 3.72095 15.962 2.75095L15.899 2.72695C14.786 2.23695 13.488 1.95195 12.124 1.95195C10.76 1.95195 9.46202 2.23695 8.28702 2.75095L8.34902 2.72695C5.99302 3.72095 4.15602 5.55795 3.18602 7.85095L3.16202 7.91395C2.64642 9.10968 2.38261 10.3988 2.38702 11.7009C2.38379 13.7598 3.04253 15.7651 4.26602 17.4209L4.24702 17.3949L3.02202 21.0079L6.77402 19.8139C8.3414 20.8696 10.1893 21.4311 12.079 21.4259H12.126H12.124ZM12.124 -5.41352e-05H12.157C13.785 -5.41352e-05 15.333 0.341946 16.732 0.958946L16.659 0.929946C19.484 2.12695 21.687 4.32995 22.855 7.07895L22.884 7.15495C23.472 8.49195 23.814 10.0509 23.814 11.6899C23.814 13.3289 23.472 14.8879 22.855 16.2989L22.884 16.2249C21.687 19.0499 19.484 21.2529 16.735 22.4209L16.659 22.4499C15.332 23.0379 13.784 23.3799 12.156 23.3799H12.122H12.124H12.071C10.012 23.3799 8.07902 22.8389 6.40702 21.8919L6.46402 21.9219L-0.000976562 23.9999L2.10802 17.7209C1.00714 15.91 0.427835 13.8302 0.434023 11.7109C0.434023 10.0649 0.776024 8.49895 1.39302 7.07995L1.36402 7.15495C2.56102 4.32995 4.76402 2.12695 7.51302 0.958946L7.58902 0.929946C9.00936 0.311244 10.5428 -0.00545513 12.092 -5.41352e-05H12.125H12.123H12.124Z" fill="#66FCF1"/>
</g>
<defs>
<clipPath id="clip0_54_5">
<rect width="24" height="24" fill="white"/>
</clipPath>
</defs>
</svg>
